<?xml version="1.0" standalone="no"?>
<!DOCTYPE svg PUBLIC "-//W3C//DTD SVG 20010904//EN"
 "http://www.w3.org/TR/2001/REC-SVG-20010904/DTD/svg10.dtd">
<svg version="1.0" xmlns="http://www.w3.org/2000/svg"
 width="1920.000000pt" height="1260.000000pt" viewBox="0 0 1920.000000 1260.000000"
 preserveAspectRatio="xMidYMid meet">

<g transform="translate(0.000000,1260.000000) scale(0.100000,-0.100000)"
fill="#000000" stroke="none">
<path d="M0 8600 l0 -4000 1039 0 1039 0 193 24 c285 36 336 39 450 27 57 -6
165 -13 239 -15 104 -3 158 -10 235 -31 226 -59 583 -103 740 -90 44 4 130 18
190 32 320 72 676 93 1270 74 220 -8 650 -15 955 -18 l555 -5 77 31 c43 17 94
32 115 32 117 2 517 -22 573 -34 150 -35 254 -42 570 -41 291 0 324 2 430 24
108 22 141 24 511 27 l397 4 91 -41 92 -40 381 0 380 0 -5 23 c-3 12 -35 182
-71 377 l-65 355 -11 513 -11 513 23 20 c47 40 107 70 184 91 73 19 113 22
504 29 234 4 445 12 470 18 25 5 151 10 281 11 170 0 264 5 340 17 89 14 178
16 609 14 278 -1 759 -6 1070 -11 311 -5 716 -10 900 -10 691 0 1118 -39 1290
-116 109 -49 128 -104 113 -330 -12 -165 -4 -247 25 -277 19 -18 24 -16 256
73 274 105 342 119 480 101 232 -31 430 -150 574 -346 85 -115 132 -235 152
-388 18 -133 3 -208 -80 -402 -38 -90 -70 -170 -70 -177 0 -12 80 -16 438 -27
240 -7 552 -16 692 -21 140 -5 330 -9 423 -10 l167 0 0 4000 0 4000 -9600 0
-9600 0 0 -4000z"/>
<path d="M16624 5641 c-147 -65 -203 -100 -257 -160 -51 -57 -71 -100 -108
-240 -36 -136 -45 -149 -150 -227 l-56 -41 -31 -158 c-26 -130 -41 -178 -87
-281 -73 -163 -85 -198 -85 -253 0 -76 0 -76 162 -75 126 1 157 5 259 32 404
108 865 394 1021 636 126 195 109 441 -42 618 -93 108 -271 193 -424 203 -69
4 -74 3 -202 -54z"/>
</g>
</svg>
